<?xml version="1.0" encoding="UTF-8" standalone="no"?>
<svg xmlns:rdf="http://www.w3.org/1999/02/22-rdf-syntax-ns#" xmlns="http://www.w3.org/2000/svg" xml:space="preserve" height="251.62" viewBox="0 0 258.14373 251.61874" width="258.14" version="1.1" xmlns:cc="http://creativecommons.org/ns#" xmlns:dc="http://purl.org/dc/elements/1.1/"><g transform="matrix(1.25 0 0 -1.25 -639.48 580.42)"><g transform="translate(1.464 1.464)"><path d="m691.44 404.28c3.5135 20.458 3.0745 34.377 2.7115 39.499-0.01 0.131-0.016 0.224-0.019 0.279l-0.0525 2.462-2.283 0.9455-0.113 0.0415c-0.264 0.086-0.526 0.1885-0.7875 0.29-0.317 0.122-0.6335 0.2435-0.9515 0.347-1.701 0.7065-31.979 12.998-75.606 12.998-17.392 0-34.782-1.9385-51.696-5.7645-10.481-2.423-14.482-3.7515-21.744-6.1635-1.59-0.528-3.3345-1.1075-5.338-1.761l-2.298-0.75-0.2615-2.521 0.001-0.0465c-0.004-0.0555-0.0115-0.1385-0.022-0.2495-0.5095-5.7655-0.8675-18.455 2.3075-39.42l-23.703-2.124v-44.814l11.088 0.68c6.8495-0.6375 23.506-3.6445 33.204-17.734 7.5345-13.539 14.09-24.27 20.586-33.696-0.415-2.5875-0.351-8.303 7.56-10.438 7.1235-9.3455 14.882-18.26 26.644-30.625l2.872-2.668 2.8025 2.5995 0.0695 0.0685c11.373 11.956 19.387 21.19 26.702 30.776 2.604 0.7665 8.4495 3.2785 7.39 10.157 6.824 9.841 13.514 20.798 21.012 34.413 9.4795 13.416 25.748 16.325 32.426 16.954l10.96-0.4525v44.791l-23.461 1.927z" fill="#e8ce79"/><path d="m711.52 361.38c-0.2595 0.0275-0.519 0.0535-0.7775 0.081-4.7675 0.408-30.334 1.4805-43.934-20.676-5.3605-10.906-11.907-22.184-19.898-33.576 0.459-1.333 1.8265-6.8165-6.0015-8.2045-7.826-10.286-16.867-20.613-27.322-30.796h-0.001c-10.407 10.222-19.417 20.536-27.224 30.772-7.937 1.3385-6.631 6.956-6.1555 8.396-7.9945 11.367-14.545 22.577-19.91 33.391-13.812 22.276-39.86 21.092-44.516 20.688-0.241-0.026-0.482-0.0495-0.724-0.0755v0.011c-0.0355-0.002-0.0695-0.007-0.1045-0.011v37.803c8.299 0.784 16.605 1.4615 24.917 2.0465-4.869 25.927-3.1215 42.758-3.1215 42.758 9.229 3.3255 18.405 5.8925 27.332 7.8555 0.015 0.003 0.029 0.006 0.043 0.01 0.7335 0.1605 1.463 0.3175 2.1925 0.47 16.084 3.43 31.243 4.9 45.074 5.116 0.8715 0.019 1.735 0.034 2.5875 0.0435v-0.015c45.852 0.2105 76.448-13.152 76.448-13.152s1.575-17.064-3.347-43.111c8.1525-0.578 16.302-1.25 24.442-2.0205v-37.803z" fill="#fff"/><path d="m708.86 364.04v33.01c-12.979 1.227-25.975 2.1995-38.983 2.925 4.6205 0.266 13.135 1.359 14.168 5.7855l0.0175-0.014c3.3865 21.27 2.2555 34.816 2.2555 34.816s-69.702 26.682-145.34-0.245c0 0-1.3115-13.95 2.275-35.883 1.314-1.9395 4.3175-3.053 7.4095-3.691v3.6435c0.375 1.6925 2.5685 4.6065 13.215 4.7225l-13.215-0.1435s26.595 7.7605 35.057 25.608v-23.514-9.882c-22.693-0.616-45.371-1.989-67.994-4.1285v-33.01c11.697 1.1235 23.408 2.118 35.13 2.9265 0.425-1.209 0.8595-2.424 1.31-3.649-0.7145 0.0845-1.43 0.1595-2.1455 0.247-0.8645 0.1025-1.5655-0.6665-1.5645-1.72 0-1.0515 0.6995-2.045 1.5625-2.2045 1.2585-0.2175 2.5165-0.417 3.7745-0.608 6.414-16.396 15.508-34.204 28.388-52.378-0.469-0.057-1.0115-0.6445-1.114-1.5275-0.1345-1.05 0.358-2.151 0.8815-2.396 1.3875-0.5255 2.7755-1.0105 4.1615-1.463 7.3365-9.8085 15.79-19.69 25.55-29.484 9.819 9.796 18.312 19.726 25.674 29.611 1.2555 0.4155 2.511 0.8595 3.768 1.336 0.5215 0.246 1.015 1.346 0.881 2.396-0.086 0.738-0.478 1.268-0.88 1.458 12.79 18.104 21.84 35.944 28.236 52.416 1.325 0.1995 2.6515 0.41 3.9765 0.6395 0.862 0.1595 1.5615 1.153 1.563 2.2045 0 1.0535-0.702 1.8225-1.5655 1.72-0.7855-0.0955-1.571-0.187-2.355-0.28 0.4465 1.224 0.8765 2.4375 1.2975 3.645 11.548-0.802 23.087-1.7825 34.61-2.8895" fill="#521e78"/><path d="m113.44 15.186v1.3438c-4.5406 0.86188-8.0815 4.388-8.7715 8.8086v1.7988 0.83203 0.52344h-0.0234-0.55859-1.3574v9.7402 2.4844h-0.26953-3.9336v35.193c11.252-0.26125 22.507-0.36953 33.762-0.33203v-34.861h-3.25l-0.68359-0.0039v-2.4805-9.7402h-1.8242v-3.1543h-0.006c-0.64875-4.17-3.8352-7.5442-8.0059-8.6367v-1.5156h-5.0781zm23.723 1.6074v58.811c8.27 0.05938 16.54 0.20125 24.807 0.42188v-59.232h-0.1289-12.211-12.467zm29.891 13.311v46.066c10.498 0.3225 20.995 0.77758 31.486 1.3613v-47.428h-31.486zm-39.301 55.58c-0.001 6.6719-0.00071 13.344-0.002 20.018 3.1781-0.005 6.3538 0.0104 9.5332 0.041 0-1.8819 0.001-3.7666 0-5.6504-1.5381-0.0138-3.0791-0.0238-4.6172-0.0312h-0.002c0-4.79-0.002-9.5831-0.002-14.375-1.6375-0.005-3.2739-0.0057-4.9102-0.002zm-6.2441 0.02148c-1.6375 0.0125-3.2766 0.02547-4.9141 0.04297-0.001 6.6819-0.003 13.366-0.006 20.049 1.6375-0.0263 3.2785-0.0456 4.916-0.0625 0-6.675 0.001-13.352 0.004-20.029zm21.578 0.06055c0.002 6.6856 0.003 13.372 0.004 20.057 3.1756 0.055 6.3543 0.12814 9.5293 0.21875 0-1.8919-0.002-3.7852-0.002-5.6777-1.5388-0.0388-3.0771-0.0756-4.6152-0.10742 0-4.8075-0.003-9.613-0.004-14.42-1.6375-0.0275-3.2746-0.04969-4.9121-0.07031zm-32.023 0.05469c-1.7369 0.02563-3.4734 0.05742-5.209 0.0918-0.33313 4.37-0.66555 8.7422-0.99805 13.117-0.1275 0.0037-0.25406 0.0092-0.38281 0.01172-0.365-4.3581-0.73195-8.7169-1.0957-13.078-1.7375 0.0375-3.4727 0.0807-5.209 0.12695 0.9575 6.7056 1.9155 13.401 2.873 20.09 2.415-0.0819 4.8284-0.1536 7.2422-0.21485 0.92625-6.7231 1.853-13.437 2.7793-20.145zm-22.834 0.21484c-0.36428-0.01137-0.71367-0.0099-1.0488 0.002-1.905 0.06875-3.3169 0.62774-4.2344 1.6777-0.91625 1.0519-1.3757 2.9508-1.377 5.6914 0 2.1538 0.35586 3.6838 1.0684 4.5938 0.71188 0.91 2.0538 1.5395 4.0312 1.8945 0.7475 0.12813 1.2075 0.23266 1.375 0.31641 0.17062 0.0838 0.25516 0.22843 0.25391 0.42968 0 0.46438-0.36719 0.7136-1.1016 0.7461-1.3825 0.065-3.155-0.074-5.3125-0.41211-0.07125 1.7994-0.14289 3.6004-0.21289 5.4004 0.275 0.0769 0.55109 0.15359 0.82422 0.23047 0.53688 0.15312 1.3031 0.29195 2.2969 0.42383 0.99375 0.13187 1.9445 0.17586 2.8457 0.13086 1.8769-0.0919 3.283-0.69274 4.2148-1.8027 0.9325-1.1081 1.3979-2.9081 1.4004-5.4062 0-1.2088-0.07383-2.167-0.2207-2.877-0.14875-0.71062-0.45398-1.3031-0.91211-1.7812-0.45812-0.47625-0.97172-0.84055-1.543-1.0918-0.57188-0.25125-1.3069-0.50055-2.2031-0.74805-0.89625-0.2475-1.4289-0.42859-1.5977-0.54297-0.16938-0.11438-0.25391-0.28398-0.25391-0.50586s0.07453-0.37234 0.22266-0.44922c0.14875-0.07688 0.67375-0.13359 1.5781-0.16797 0.90188-0.03562 2.3479 0.06312 4.3379 0.29688 0.04313-1.815 0.08711-3.6316 0.13086-5.4473-0.29625-0.06125-0.59375-0.12234-0.89062-0.18359-1.3542-0.24469-2.579-0.38387-3.6719-0.41797zm70.188 0.01563c0.002 6.725 0.003 13.451 0.004 20.176 3.545 0.12438 7.0876 0.27203 10.629 0.44141 0-1.87-0.0007-3.7393-0.002-5.6074-1.9056-0.0838-3.8092-0.16117-5.7148-0.23243v-1.8105c1.4806 0.05437 2.9628 0.11188 4.4453 0.17188-0.001-1.8462-0.002-3.6928-0.002-5.5391-1.4819-0.05625-2.9616-0.11016-4.4453-0.16016h-0.002c0-0.57375-0.0007-1.147-0.002-1.7207 1.9075 0.06188 3.8131 0.1293 5.7188 0.20117-0.002-1.87-0.004-3.7373-0.004-5.6055-3.5431-0.12125-7.0831-0.2257-10.625-0.31445zm31.248 0.83594c-1.9629 0.0641-3.3246 0.73812-4.082 2.0156-0.86749 1.4581-1.3001 4.2207-1.2988 8.2832 0.002 2.8381 0.19008 5.0236 0.56445 6.5586 0.37375 1.5338 0.98258 2.6495 1.8301 3.3477 0.84687 0.69875 2.0535 1.1008 3.6191 1.207 1.5644 0.1075 3.0941-0.0497 4.5879-0.47656-0.02-1.8138-0.0438-3.6276-0.0645-5.4395-1.0994-0.0138-2.2014-0.0252-3.3008-0.0352-0.6625-0.0425-1.1425-0.17969-1.4375-0.41407-0.29562-0.23375-0.51148-0.68398-0.64648-1.3496-0.13312-0.6625-0.19922-1.8462-0.19922-3.5469-0.001-1.7025 0.13805-2.8143 0.41992-3.3418 0.28188-0.52812 0.91258-0.76523 1.8926-0.70898 0.98063 0.05688 2.0488 0.22367 3.2051 0.49805 0.0406-1.8388 0.0825-3.6802 0.125-5.5215-0.2475-0.085-0.49203-0.17024-0.73828-0.25586-1.3831-0.48812-2.5815-0.75805-3.5996-0.81055-0.305-0.01578-0.59654-0.01892-0.87695-0.0098zm-114.04 0.01367c-1.6369 0.075-3.2713 0.15445-4.9082 0.23633l-0.0078 20.57c1.6362-0.10625 3.2713-0.21117 4.9082-0.31055 0.0025-6.8319 0.0041-13.664 0.0078-20.496zm-11.064 0.55859c-1.635 0.09063-3.2732 0.18242-4.9082 0.2793-0.0013 4.5325-0.0027 9.0638-0.0039 13.596 0 0.59937-0.09938 1.0278-0.29688 1.2891-0.19688 0.26312-0.53562 0.41156-1.0156 0.44532-0.48 0.0344-0.82031-0.0651-1.0234-0.29883-0.205-0.2325-0.30859-0.64876-0.30859-1.25 0.0025-4.5406 0.0046-9.0792 0.0059-13.621-1.635 0.10062-3.2706 0.205-4.9062 0.3125 0 4.4638-0.0027 8.9255-0.0039 13.389 0 2.9269 0.49812 4.9312 1.5 6.0137h0.002c0.99938 1.0844 2.5752 1.5387 4.7246 1.373 2.15-0.1625 3.7247-0.86938 4.7266-2.125 1.0006-1.255 1.5014-3.3398 1.5039-6.2598 0.0012-4.38 0.0033-8.7626 0.0039-13.143zm136.22 0.41797c0 6.9275 0.004 13.856 0.004 20.781 1.6356 0.12688 3.2719 0.25485 4.9062 0.38672-0.002-6.9519-0.005-13.904-0.006-20.857-1.6338-0.10562-3.2706-0.20992-4.9043-0.31055zm10.697 0.70312c0.001 1.9694 0.002 3.9395 0.002 5.9082 0.97313 0.07188 1.9448 0.145 2.916 0.21875 0 5.02 0.003 10.038 0.004 15.057 1.6325 0.14 3.266 0.28008 4.9004 0.42383 0-5.0306 0.00054-10.065-0.002-15.098 0.9175 0.07188 1.8311 0.14703 2.7461 0.22266v-5.9414c-3.52-0.27869-7.0427-0.54294-10.566-0.79102zm-171.12 0.0918c-0.27407-0.0062-0.55742 0.003-0.85156 0.02539-2.3531 0.1775-4.0641 1.1792-5.1348 2.9961-1.07 1.8169-1.6055 4.6446-1.6055 8.4746-0.0019 3.83 0.53773 6.5666 1.6152 8.2129 1.0775 1.6444 2.7872 2.3593 5.1328 2.1543s4.0531-1.2115 5.125-3.0215c1.0706-1.81 1.6062-4.6185 1.6074-8.4316 0-3.8131-0.53547-6.5411-1.6055-8.1836-0.93789-1.4372-2.3647-2.183-4.2832-2.2266zm186.69 1.1074c1.3456 4.9419 2.6907 9.8901 4.0332 14.846 0 2.2062 0.0007 4.4148 0.002 6.6211 1.6325 0.14813 3.2641 0.2993 4.8984 0.45118v-6.627c1.3781-4.7094 2.7586-9.4227 4.1367-14.129-1.7231-0.16375-3.4495-0.32289-5.1738-0.47852-0.45625 2.0319-0.91359 4.0631-1.3711 6.0938-0.44438-2.1125-0.88821-4.2233-1.3301-6.332-1.7312-0.15369-3.4622-0.30037-5.1953-0.44531zm-204.16 0.707c-1.634 0.147-3.268 0.3-4.9 0.453v21.139c3.1669-0.29375 6.3345-0.58633 9.502-0.87696v-5.957c-1.5344 0.13813-3.0678 0.2761-4.6016 0.41797v-15.176z" transform="matrix(.8 0 0 -.8 510.86 462.01)" fill="#fff"/><path d="m113.27 14.994-0.19727 1.3535c-4.5406 0.86125-7.9337 4.5553-8.623 8.9766v2.6289c1.5425 0.38625 3.7676 0.52539 3.7676 0.52539h-3.5254-0.004-2.1816l0.0273 9.7617v1.5781c2.2338 0.52625 5.2383 0.87891 5.2383 0.87891h-5.0215l-0.26758 0.0039h-4.1172v35.475c5.645-0.13125 11.475-0.22492 17.119-0.2793v-47.418h-4.9082l-0.91602 40.443-0.91406-40.443h1.0684c-0.69063-12.387 8.8809-11.777 8.8809-11.777v-1.707h-5.4258zm23.666 1.6074v5.584h12.713v0.50391h-12.713v53.166c4.1562 0.02938 8.5598 0.08047 12.715 0.15234v-53.318h3.3418v53.363c0.22875 0.005 0.4561 0.0099 0.6836 0.01367v-53.377h4.2559v53.475c0.2275 0.005 0.45414 0.01 0.68164 0.01563v-53.49h3.375v-0.50391h-12.338v-5.584h-12.715zm45.875 13.213-15.934 0.10938v45.191 1.1602c5.69 0.17438 11.443 0.39398 17.133 0.64648 0.48375 0.02187 1.0853 0.02625 1.5703 0.04687 1.1775 0.05375 2.4911 0.21195 3.668 0.26758l-2.0195-2.1172h-0.0156l-1.8691-1.9004-0.082-0.08203-0.16016-0.16602-2.291-2.3262-2.2871 2.3262-1.7383 1.7695 1.9902-2.4746 2.0801-2.8535 1.75 1.9941v-22.59h5.9629v-6.3086h0.56445v6.3086h0.2793v-6.3086h0.56445v6.3086h0.2832v-6.3086h0.5625v6.3086h1.7774v-6.3086h1.4551v-3.2734h-13.244v-9.4199zm-58.207 0.90234v1.3906h1.4434v-1.3906h-1.4434zm44.916 1.7559h1.4355v1.2285h-1.4355v-1.2285zm3.6387 0h1.4375v1.2285h-1.4375v-1.2285zm3.4473 0h1.4394v1.2285h-1.4394v-1.2285zm3.6426 0h1.4356v1.2285h-1.4356v-1.2285zm3.6387 0v1.2285h1.4375v-1.2285h-1.4375zm3.4492 0v1.2285h1.4395v-1.2285h-1.4395zm3.6387 0v1.2285h1.4394v-1.2285h-1.4394zm3.6426 0v1.2285h1.4375v-1.2285h-1.4375zm-70.014 1.7656v1.3906h1.4434v-1.3906h-1.4434zm-31.024 0.043c-10.995 22.132-44.791 32.145-44.791 32.145l8.4961-0.13672c0.0063 0.01 0.02789 0.01758 0.07227 0.01758 0.6525 0 0.9693 0.33062 0.20117 0.40625h-0.14844c-5.8269 1.0525-7.3123 3.1678-7.6504 4.6953v6.7695c3.24-0.2 6.342-0.3693 9.582-0.54492 3.655-5.5856 8.1172-8.1562 8.1172-8.1562 18.958-10.485 26.121-35.195 26.121-35.195zm31.006 3.4785v1.3867h1.4434v-1.3867h-1.4434zm0 3.334v1.3906h1.4434v-1.3906h-1.4434zm47.281 1.4141h7.4531v6.3086h-7.4531v-6.3086zm-43.25 0.22656v0.75586h2.7891v-0.75586h-2.7891zm-4.0312 1.8809v1.3906h1.4434v-1.3906h-1.4434zm4.0312 1.8418v0.75586h2.7891v-0.75586h-2.7891zm-4.0312 1.6797v1.3887h1.4434v-1.3887h-1.4434zm4.0312 2.043v0.75391h2.7891v-0.75391h-2.7891zm-4.0312 1.291v1.3906h1.4434v-1.3906h-1.4434zm4.0312 2.4316v0.75391h2.7891v-0.75391h-2.7891zm-4.0312 1.0918v1.3887h1.4434v-1.3887h-1.4434zm4.0312 2.6289v0.75586h2.7891v-0.75586h-2.7891zm-4.0312 0.89062v1.3887h1.4434v-1.3887h-1.4434zm4.0312 2.832v0.75586h2.7891v-0.75586h-2.7891zm-4.0312 0.68945v1.3887h1.4434v-1.3887h-1.4434zm-45.666 0.37695v1.3906h1.4453v-1.3906h-1.4453zm2.8164 0v1.3906h1.4453v-1.3906h-1.4453zm5.2871 0v1.3906h1.4473v-1.3906h-1.4473zm2.8203 0v1.3906h1.4453v-1.3906h-1.4453zm38.773 2.4551v0.75586h2.7891v-0.75586h-2.7891zm-46.881 0.5625v1.3906h1.4453v-1.3906h-1.4453zm5.2871 0v1.3906h1.4473v-1.3906h-1.4473zm2.8203 0v1.3906h1.4434v-1.3906h-1.4434zm-10.924 0.002v1.3887h1.4453v-1.3887h-1.4453zm45.666 0.125v1.3887h1.4434v-1.3887h-1.4434zm4.0312 3.0332v0.75391h2.7891v-0.75391h-2.7891zm-4.0312 0.48633v1.3906h1.4434v-1.3906h-1.4434zm-53.689 1.1934v1.3887h1.4434v-1.3887h-1.4434zm2.8184 0v1.3887h1.4434v-1.3887h-1.4434zm5.2051 0v1.3887h1.4453v-1.3887h-1.4453zm2.8164 0v1.3887h1.4453v-1.3887h-1.4453zm5.2871 0v1.3887h1.4473v-1.3887h-1.4473zm2.8203 0v1.3887h1.4434v-1.3887h-1.4434zm38.773 2.043v0.75391h2.7891v-0.75391h-2.7891zm-4.0312 0.4043v1.3906h1.4434v-1.3906h-1.4434zm-53.689 0.56836v1.3906h1.4434v-1.3906h-1.4434zm2.8184 0v1.3906h1.4434v-1.3906h-1.4434zm5.2051 0v1.3906h1.4453v-1.3906h-1.4453zm2.8164 0v1.3906h1.4453v-1.3906h-1.4453zm5.2871 0v1.3906h1.4473v-1.3906h-1.4473zm2.8203 0v1.3906h1.4434v-1.3906h-1.4434zm42.816 22.316c-1.6375-0.0062-3.281-0.0016-4.916 0.0059h-0.15039v10.236l1.3613-0.002c2.68 0 5.4009 0.0148 8.3184 0.043h0.002l0.15234 0.002v-0.1543c0-1.8831 0.00055-3.7666-0.002-5.6504v-0.14844l-0.15039-0.002c-1.4875-0.01313-2.9761-0.02242-4.4648-0.0293v-4.3008h-0.15039zm-11.012 0.07617-0.15429 0.0039c-1.6462 0.02938-3.2848 0.06422-4.916 0.10547l-0.14648 0.002-0.002 10.152 0.1543-0.002c1.6375-0.0256 3.2753-0.0455 4.9141-0.0605l0.15039-0.002v-10.199zm21.279 0.03711 0.002 10.248 0.14844 0.002c3.2594 0.0563 6.4636 0.13 9.5273 0.21875l0.15625 0.004-0.002-5.9785-0.14648-0.004c-1.49-0.0387-2.9801-0.0755-4.4707-0.10742v-4.2598l-0.14648-0.0059v0.002c-1.6212-0.04438-3.2572-0.08273-4.9141-0.11523l-0.1543-0.0039zm-33.123 0.29102-0.17969 0.0059c-1.535 0.05813-3.0631 0.11938-4.5781 0.1875l-0.13281 0.0059-0.20313 2.6699c-0.035 0.000625-0.0705 0.002-0.10547 0.002l-0.2207-2.6465-0.14453 0.0078c-1.5362 0.07188-3.0638 0.14672-4.5781 0.23047l-0.16602 0.0098 1.4082 9.8496 0.13672-0.004c2.48-0.0831 4.9153-0.1561 7.2422-0.21484l0.1289-0.002 0.0176-0.12694c0.28438-2.0669 0.56852-4.1302 0.85352-6.1934l0.52148-3.7812zm48.455 0.19922v0.1582c0 3.285 0.0007 6.5717 0.002 9.8555v0.14647l0.14649 0.004c3.5212 0.12563 7.0976 0.2732 10.627 0.43944l0.1582 0.008v-0.15821c0-1.8681-0.001-3.7373-0.004-5.6055v-0.14453l-0.14453-0.006c-1.8575-0.0806-3.7135-0.15656-5.5723-0.22656v-1.5078c1.43 0.05187 2.8591 0.10664 4.2891 0.16602l0.15821 0.0059v-2.6172l-0.14258-0.0098c-3.1788-0.19375-6.3275-0.3625-9.3594-0.5l-0.1582-0.0078zm-65.131 0.64844-0.12695 0.0098c-3.5175 0.22875-7.0598 0.48562-10.527 0.76562l-0.25391 0.01953 0.17383 0.26562c0.03812 0.06 0.07594 0.12 0.11719 0.17188 0.73125 0.93375 2.1188 1.5905 4.125 1.9512 0.9075 0.155 1.2272 0.25156 1.3359 0.30469 0.11562 0.0575 0.16797 0.14734 0.16797 0.29297 0 0.13625 0.0012 0.55187-0.95508 0.59375-1.3669 0.0625-3.137-0.0752-5.2852-0.41016l-0.16602-0.0254-0.22266 5.6875 0.9375 0.26172c0.54562 0.155 1.3265 0.30094 2.3184 0.42969 0.74625 0.0987 1.4805 0.14843 2.1836 0.14843 0.23312 0 0.46328-0.006 0.69141-0.0156 1.9125-0.0937 3.3666-0.71797 4.3203-1.8555 0.95125-1.13 1.433-2.9827 1.4336-5.5059 0.0012-1.21-0.07266-2.1882-0.22266-2.9082l-0.04492-0.18164zm91.002 1.0996 0.004 0.16797c0.0388 2.3875 0.22734 4.2879 0.55859 5.6504 0.37875 1.5581 1.0109 2.7122 1.8809 3.4297 0.8675 0.71625 2.1131 1.1341 3.7031 1.2422 0.3175 0.0212 0.63875 0.0312 0.95312 0.0312 1.2481 0 2.4907-0.1732 3.6895-0.51758l0.10937-0.0312-0.0684-5.7012-0.14648-0.002c-1.0994-0.0125-2.1992-0.0225-3.293-0.0312v-0.002c-0.62688-0.04-1.0829-0.16773-1.3535-0.38086-0.26562-0.2125-0.46429-0.63796-0.59179-1.2617-0.0856-0.42188-0.1425-1.0789-0.17188-1.957l-0.006-0.13086-0.13086-0.01563c-1.6231-0.16375-3.2788-0.31898-4.9688-0.47461l-0.16797-0.01563zm-108.37 0.24805-0.16602 0.01563c-1.6581 0.15-3.2963 0.30602-4.9082 0.46289l-0.13672 0.01172 0.002 0.002-0.0039 9.168 0.16211-0.01c1.6369-0.10625 3.27-0.21125 4.9062-0.3125l0.14258-0.01 0.002-9.3281zm-11.062 1.0918-0.16797 0.01953c-1.665 0.1775-3.3045 0.35852-4.9082 0.54102l-0.13281 0.01563v1.457c0 0.56063-0.0907 0.96422-0.26758 1.1992-0.16875 0.22375-0.47375 0.35289-0.90625 0.38477-0.42188 0.0294-0.72852-0.0511-0.90039-0.2461-0.1775-0.20375-0.26758-0.59039-0.26758-1.1504v-1.373l-0.167 0.01c-1.675 0.19812-3.3113 0.39632-4.9082 0.5957l-0.13086 0.0176v0.82031c0 2.9544 0.51719 5.0102 1.5391 6.1152 0.89 0.96563 2.239 1.4551 4.0059 1.4551 0.26938 0 0.55047-0.0101 0.83984-0.0332 2.1831-0.16375 3.8102-0.89922 4.834-2.1836 1.0194-1.2762 1.5371-3.4141 1.5371-6.3535l0.002-1.3008zm135.92 0.42188v9.0781l0.13868 0.01c1.6362 0.12625 3.2725 0.25476 4.9062 0.38477l0.16211 0.0137v-8.8164l-0.13086-0.0176c-1.7525-0.23563-3.3569-0.4422-4.9062-0.63282l-0.16993-0.01953zm-154.32 1.7891-0.18555 0.0254c-1.7206 0.23062-3.3912 0.46062-4.998 0.6875l-0.11328 0.0176-0.01563 0.11328c-0.05188 0.385-0.11297 0.70648-0.18359 0.95898-0.20875 0.73125-0.63953 1.1163-1.3164 1.1738-0.6525 0.0544-1.0876-0.25359-1.2988-0.94922-0.06063-0.2-0.11453-0.44063-0.16016-0.71875l-0.02344-0.14648-0.14648 0.0215c-1.73 0.25313-3.3811 0.50156-4.9492 0.74219l-0.14453 0.0215 0.01758 0.14453c0.24188 2.1156 0.73211 3.7526 1.459 4.8613 0.98188 1.4975 2.495 2.2578 4.5 2.2578 0.24812 0 0.50773-0.0126 0.77148-0.0352 2.385-0.20813 4.1471-1.2501 5.2402-3.0957 0.81875-1.3819 1.3331-3.3658 1.5312-5.8945l0.01563-0.18554zm167.93 0.0918v0.17578c0.002 2.6625 0.002 5.3245 0.002 7.9863v0.13867l0.32813 0.0273c1.5694 0.135 3.1397 0.26937 4.7109 0.40625l0.16406 0.0156v-7.9199l-0.12696-0.0215c-1.7025-0.28063-3.3068-0.53758-4.9043-0.78321l-0.17383-0.0254zm16.686 2.9297v0.18555c0 2.1769 0.0007 4.3518 0.002 6.5293v0.13672l0.13867 0.0137c1.6325 0.14876 3.264 0.2993 4.8965 0.45118l0.16406 0.0156v-6.2383l-0.11719-0.0273c-1.6062-0.35375-3.2555-0.69992-4.9023-1.0293l-0.18164-0.0371zm-207.88 0.51367-0.17773 0.0312c-1.8244 0.31625-3.4728 0.6086-4.8984 0.8711l-0.12305 0.0234v6.2734l0.16406-0.0156c3.1662-0.29375 6.3325-0.585 9.5-0.875l0.13867-0.0137v-6.2598l-0.36328 0.0332c-1.4119 0.12688-2.8265 0.25414-4.2402 0.38477v-0.45313zm104.98 11.027v0.002c-6.6069-0.0125-13.214 0.0595-19.82 0.19141 0.0987 1.0706 0.48297 5.1363 1.1523 11.236 12.734 0.385 25.475 0.38563 38.211 0 0.66563-6.0744 1.0491-10.128 1.1504-11.223-6.8975-0.14313-13.795-0.21954-20.693-0.20704zm-21.156 0.21484c-12.63 0.26812-25.258 0.78077-37.877 1.4883 0.6825 1.8356 1.6362 4.3585 2.8594 7.4629 12.033 1.0862 24.091 1.8262 36.158 2.2168-0.68-6.2144-1.0588-10.279-1.1406-11.168zm43.184 0.0176c-0.085 0.92562-0.46633 4.9786-1.1426 11.152 11.931-0.38626 23.853-1.1134 35.754-2.1777 1.2244-3.1112 2.1828-5.6353 2.8672-7.4766-12.488-0.70687-24.982-1.2212-37.479-1.498zm-82.451 1.5488c-3.2688 0.18811-6.5391 0.39038-9.8066 0.60351 0.86062 1.8619 1.7424 3.7416 2.6699 5.6504 3.3 0.35688 6.6005 0.69249 9.9043 1-1.1944-3.0481-2.1188-5.5033-2.7676-7.2539zm121.32 0.0293c-0.64875 1.7569-1.5778 4.2137-2.7734 7.2637 3.4531-0.31562 6.9021-0.66335 10.35-1.0371 0.91875-1.8888 1.7927-3.7494 2.6445-5.5938-3.4069-0.22375-6.812-0.43657-10.221-0.63282zm-125.66 11.83c8.445 16.55 19.482 34.64 33.886 53.53-10.934-20.42-19.322-39.68-24.533-52.53-3.12-0.28375-6.2373-0.62273-9.3535-1.0058zm130.46 0.002c-3.2631 0.40312-6.5288 0.75305-9.7969 1.0449-5.3756 13.255-14.123 33.306-25.555 54.412 15.13-19.592 26.619-38.343 35.352-55.457zm-119.61 1.1387c5.8281 14.325 15.48 36.286 28.121 58.912 2.5838 3.2425 5.2666 6.5091 8.0547 9.791 2.9819 0.55687 5.9856 0.97781 9 1.2578-0.49688-2.3238-0.98102-4.6681-1.4473-7.0312l1.4082 0.24219c0.45938 2.3206 0.93578 4.6249 1.4258 6.9043 5.1956 0.40813 10.415 0.39836 15.611-0.0254 0.48-2.2456 0.94992-4.5138 1.4043-6.7969l1.4043-0.24219c-0.45938 2.3256-0.93508 4.633-1.4238 6.9199 3.0519-0.2925 6.0926-0.73375 9.1113-1.3125 2.2406-2.64 4.4166-5.2684 6.5234-7.8828 13.134-23.244 23.14-45.984 29.127-60.695-11.337 0.96687-22.695 1.3434-34.062 1.5215-0.75813 6.615-1.7695 14.823-3.0332 23.83l-1.3984 0.39648c1.2875-9.1444 2.318-17.489 3.0918-24.207-6.175 0.0888-12.352 0.12563-18.529 0.17188-6.1931-0.0463-12.386-0.0831-18.576-0.17188 0.77 6.7044 1.797 15.029 3.082 24.152l-1.4004-0.39649c-1.2581-8.9875-2.2673-17.176-3.0254-23.777-11.501-0.17938-22.997-0.56867-34.469-1.5606zm67.717 74.346c-1.7538 0.24438-3.504 0.44696-5.2559 0.59571-0.54687 2.4112-1.1126 4.7771-1.6914 7.0996 2.3806-2.5738 4.6948-5.1391 6.9473-7.6953zm-26.615 0.0547c2.2181 2.5169 4.4994 5.0437 6.8438 7.5762-0.57188-2.2919-1.1312-4.629-1.6699-7.0059-1.7237-0.14375-3.4476-0.33656-5.1738-0.57031zm19.969 0.65625c-4.4706 0.3175-8.9356 0.32328-13.406 0.0195 0.69437 3.0431 1.4139 6.0228 2.1602 8.9141 1.4994 1.5981 3.0138 3.197 4.5625 4.8008 1.5281-1.5812 3.0193-3.1588 4.498-4.7344 0.755-2.9188 1.4837-5.9262 2.1856-9z" transform="matrix(.8 0 0 -.8 510.86 462.01)" fill="#e8ce79"/><path d="m39.525 94.596c-0.74688 0.05813-1.2362 0.48859-1.4688 1.293-0.23188 0.8025-0.34774 2.0976-0.34961 3.877 0 1.7794 0.11703 3.0515 0.34766 3.8184 0.23188 0.765 0.71961 1.1159 1.459 1.0547 0.73938-0.0631 1.221-0.4907 1.4473-1.2832 0.225-0.7925 0.33789-2.0904 0.33789-3.9004 0.0012-1.8069-0.10617-3.0838-0.32617-3.8281-0.21812-0.74625-0.70102-1.0912-1.4473-1.0312zm88.936 39.465c-0.02 0.0456-0.0384 0.0834-0.0527 0.11718-0.175 0.39125-0.34398 0.78649-0.52148 1.1777-0.17188 0.3825-0.36164 0.75898-0.52539 1.1465-0.60063 1.3931-1.2519 2.7602-2 4.082-0.38063 0.6725-0.75242 1.3532-1.123 2.0332-0.74875 1.3656-1.4773 2.7447-2.1211 4.1641-0.65375 1.4425-1.2202 2.9183-1.6133 4.457-0.22 0.87563-0.38289 1.7613-0.46289 2.6582-0.0681 0.7475-0.0855 1.4948-0.0293 2.2461 0.0444 0.60625 0.12172 1.2064 0.24609 1.8008 0.19375 0.9325 0.47336 1.8412 0.80274 2.7344 0.37687 1.0194 0.81539 2.0133 1.2598 3.0039 0.70875 1.5831 1.3558 3.1927 1.8789 4.8496 0.18875 0.60063 0.39406 1.1956 0.66406 1.7656 0.0956 0.19812 0.17203 0.40617 0.25391 0.60742 0.8125 2.0288 1.3385 4.1288 1.5879 6.2988 0.0138 0.125 0.0373 0.24782 0.0566 0.38282 1.0631 0.10937 2.1115 0.10867 3.1621 0.0449 0.10937-0.008 0.22054 0.004 0.32617-0.0527 0.01-0.0431 0.0224-0.0837 0.0293-0.12304 0.0344-0.23375 0.0659-0.4693 0.10156-0.70117 0.22875-1.51 0.59984-2.9845 1.1055-4.4258 0.17562-0.51062 0.385-1.0069 0.5625-1.5156 0.38937-1.1306 0.83351-2.2417 1.3066-3.3398 0.5175-1.1969 1.0423-2.3911 1.5566-3.5898 0.54937-1.2856 1.0598-2.5851 1.4648-3.9238 0.42875-1.4056 0.7286-2.8348 0.8086-4.3086 0.055-1.025-0.0171-2.0355-0.19336-3.043-0.21688-1.24-0.55844-2.4469-0.99219-3.625-0.5125-1.3931-1.1379-2.7348-1.8379-4.041-1.1781-2.1956-2.341-4.4023-3.4785-6.6191-0.69312-1.3488-1.3824-2.698-2.0762-4.0449-0.0362-0.07-0.0559-0.15554-0.14648-0.21679zm18.188 25.156c-0.47008 0.008-0.94047 0.0448-1.4102 0.11132-1.0412 0.145-2.0395 0.43079-3.0039 0.84766-1.3769 0.59438-2.5875 1.4348-3.6719 2.4629-1.125 1.0669-2.0919 2.2649-2.9375 3.5606-2.2269 3.4206-3.6912 7.1358-4.248 11.191-0.005 0.0462 0.00071 0.0944 0.002 0.14063 0.45062 0.0256 2.3361-0.30305 2.7148-0.4668 0.005-0.006 0.0124-0.0127 0.0137-0.0195 0.0206-0.0644 0.0405-0.12898 0.0606-0.19336 0.24437-0.85062 0.63195-1.6316 1.1426-2.3535 0.615-0.8675 1.3678-1.6011 2.2422-2.1992 1.6681-1.1438 3.5073-1.8498 5.5254-2.0586 0.78563-0.08 1.5659-0.0515 2.3359 0.11915 1.0094 0.22187 1.9021 0.67187 2.6465 1.3906 0.59937 0.5775 1.0516 1.2455 1.2754 2.0586 0.27625 1.0125 0.36562 2.033 0.23437 3.0742-0.1125 0.91063-0.40218 1.7548-0.92969 2.5117-0.0187 0.0238-0.0289 0.0562-0.0508 0.10742 0.0594-0.0125 0.0994-0.0167 0.14063-0.0273 0.77375-0.20313 1.5251-0.4725 2.252-0.8125 1.2162-0.57 2.3064-1.3184 3.2383-2.2871 1.31-1.3606 2.1781-2.9652 2.6562-4.7871 0.14188-0.53812 0.24016-1.0844 0.25391-1.6426 0.0275-1.0438-0.10766-2.0677-0.39453-3.0684h0.002c-0.59562-2.075-1.6674-3.8556-3.2637-5.3125-0.74625-0.68125-1.581-1.2282-2.5254-1.5957-0.93063-0.36375-1.895-0.59078-2.8906-0.69141-0.47125-0.0488-0.94007-0.0689-1.4102-0.0605zm-36.514 0.0527c-0.96411 0.0138-1.9192 0.15195-2.8633 0.40039-1.3906 0.36938-2.6006 1.0456-3.6562 2.0156-1.1819 1.0912-2.074 2.3857-2.709 3.8613-0.58562 1.3625-0.89344 2.7859-0.88281 4.2734 0.001 0.23563 0.0123 0.47266 0.041 0.70703 0.0838 0.64375 0.23727 1.2717 0.44727 1.8867 0.69875 2.0506 1.885 3.7522 3.6094 5.0703 1.1094 0.8475 2.3469 1.4493 3.6719 1.873 0.21437 0.0662 0.43062 0.12703 0.70312 0.20703-0.0556-0.0919-0.0745-0.12836-0.0977-0.16211-0.2125-0.31437-0.38852-0.65023-0.52539-1.0059-0.25938-0.67437-0.38555-1.3739-0.4043-2.0976-0.0231-0.89188 0.0833-1.7627 0.36328-2.6133 0.10875-0.32938 0.24117-0.64547 0.43555-0.9336 0.38187-0.56562 0.84555-1.0489 1.4043-1.4414 0.87062-0.61125 1.8505-0.91743 2.9023-0.99805 0.72437-0.0563 1.4459-0.0148 2.1641 0.11328 0.99875 0.1775 1.9604 0.48359 2.8848 0.90234 1.2081 0.54626 2.3044 1.2585 3.2344 2.2129 0.92813 0.95125 1.6152 2.044 2.0059 3.3184 0.0206 0.0644 0.0452 0.12429 0.0684 0.18554 0.0406 0.0138 0.0723 0.0264 0.10352 0.0352 0.345 0.0769 0.68828 0.16547 1.0352 0.23047 0.44688 0.0819 0.89641 0.14476 1.3477 0.21289 0.0681 0.01 0.14711 0.0376 0.22461-0.0293-0.01-0.1025-0.0149-0.21094-0.0293-0.32031-0.0419-0.29875-0.0853-0.59977-0.13281-0.90039-0.11938-0.79875-0.27758-1.593-0.48633-2.373-0.64562-2.4269-1.6377-4.7024-2.9434-6.8418-0.9225-1.5112-1.9844-2.9104-3.25-4.1504-0.68125-0.66937-1.4158-1.2726-2.2227-1.7832-1.6731-1.0656-3.4972-1.6862-5.4766-1.8281-0.32375-0.0234-0.64543-0.0319-0.96679-0.0273zm4.0918 14.236c0.32438 2.0012 0.66219 4.0171 1.0078 6.0371l1.2363-0.91016c-0.28625-1.68-0.56797-3.1105-0.83984-4.7793l-1.4043-0.34766zm28.502 0.0508-1.4024 0.3457c-0.25937 1.5781-0.52367 2.9158-0.79492 4.5039l1.2383 0.91016c0.32938-1.9281 0.65024-3.851 0.95899-5.7598zm-19.689 4.4551c-0.0156 0.0138-0.0316 0.0214-0.0391 0.0352-0.30312 0.495-0.49898 1.0288-0.53711 1.6113-0.0525 0.76688 0.19281 1.4416 0.66406 2.0391 0.10938 0.135 0.2368 0.22703 0.4043 0.28515 1.5094 0.53313 3.061 0.84274 4.666 0.88086 1.2619 0.0238 2.5022-0.1093 3.7266-0.41992 0.56125-0.14188 1.1141-0.32024 1.6484-0.55274 0.11125-0.0481 0.20046-0.11335 0.27734-0.20898 0.23062-0.30437 0.41875-0.63055 0.53125-0.99805 0.28187-0.90312 0.12969-1.7616-0.28906-2.5879-0.007-0.0137-0.0213-0.0222-0.0488-0.0547-3.6781 0.965-7.3439 0.97507-11.004-0.0293zm17.281 4.1582c-0.007 0.0188-0.0175 0.037-0.0156 0.0488 0.002 0.0594 0.0116 0.11961 0.0234 0.17773 0.0819 0.45063 0.10688 0.90313 0.0781 1.3594-0.0188 0.31062-0.078 0.61648-0.18555 0.91211-0.23062 0.62312-0.64336 1.1029-1.1777 1.4785-0.62 0.43563-1.3072 0.65305-2.0703 0.56055-0.86125-0.1025-1.568-0.48547-2.0918-1.1836-0.15938-0.20875-0.28781-0.43633-0.39844-0.67383-0.21875-0.46938-0.34773-0.96383-0.44336-1.4707-0.0138-0.0819-0.009-0.16922-0.0742-0.2461-0.0375 0.0125-0.0778 0.0195-0.11718 0.0332-0.79188 0.28687-1.6064 0.49476-2.4414 0.61914-0.0631 0.009-0.12445 0.0359-0.18945 0.0527 0 0.0494-0.002 0.0827 0 0.11523 0.0294 0.23188 0.0553 0.46876 0.0859 0.70313 0.0919 0.71875 0.24024 1.4241 0.45899 2.1172 0.23875 0.76 0.55922 1.4792 1.0117 2.1367 0.58062 0.83875 1.324 1.4791 2.2715 1.8672 0.68313 0.28 1.405 0.40118 2.1406 0.41993 0.3875 0.0131 0.7739-0.0134 1.1602-0.0527 0.68313-0.0681 1.3159-0.2825 1.8828-0.67187 0.8825-0.60625 1.4534-1.4366 1.7422-2.4629 0.11063-0.38938 0.18422-0.78633 0.23047-1.1895 0.0987-0.905-0.009-1.7815-0.38867-2.6152-0.345-0.76125-0.85898-1.4066-1.4277-2.0078-0.0169-0.0169-0.0438-0.0186-0.0645-0.0274zm-23.574 0.12696c-0.1825 0.11249-0.31476 0.2621-0.44726 0.4121-0.3675 0.42063-0.69977 0.86172-0.96289 1.3555-0.37625 0.70688-0.56141 1.4583-0.56641 2.2539-0.005 0.46812 0.0621 0.92461 0.14649 1.3809 0.18812 1.0056 0.66703 1.8454 1.4258 2.5254 0.54937 0.49187 1.1703 0.85312 1.8984 1 0.25438 0.0531 0.51665 0.081 0.77539 0.10351 0.68438 0.0594 1.3634 0.0423 2.0371-0.0977 1.335-0.27688 2.3766-0.99445 3.1504-2.1113 0.39063-0.56687 0.68258-1.1806 0.90821-1.8262 0.37062-1.0656 0.55906-2.1651 0.66406-3.2832 0.005-0.0569 0-0.1168 0-0.18555-0.46187-0.0919-0.91516-0.17172-1.3633-0.27734-0.4475-0.10438-0.88875-0.23891-1.3438-0.36329-0.0237 0.11625-0.0457 0.22063-0.0644 0.32813-0.0813 0.43187-0.18914 0.85555-0.35352 1.2637-0.175 0.43375-0.39789 0.8407-0.72851 1.1738-0.77563 0.78-1.7142 1.0793-2.793 0.85742-0.82063-0.1675-1.4524-0.64031-1.9512-1.3047-0.25062-0.33625-0.40773-0.71562-0.49023-1.125-0.0944-0.47312-0.0863-0.95234-0.0332-1.4336 0.0219-0.21688 0.0593-0.42961 0.0918-0.64648zm13.365 1.5801c-0.22563 0.0156-0.43445 0.0312-0.64258 0.0449-0.22063 0.0138-0.43938 0.0276-0.65625 0.0332-0.21187 0.006-0.42156 0.003-0.63281-0.002-0.21938-0.009-0.43688-0.0274-0.65625-0.0293-0.20938-0.001-0.41328-0.0677-0.62891-0.0371-0.009 0.0375-0.0255 0.067-0.0273 0.0977-0.06 0.58562-0.11961 1.1761-0.17774 1.7617-0.0187 0.20125-0.0314 0.40039-0.0508 0.60352-0.0194 0.20125-0.0389 0.40156-0.0664 0.60156-0.0838 0.58563-0.3029 1.1202-0.61915 1.6152-0.1875 0.30062-0.38789 0.59218-0.58789 0.88281-0.41812 0.60437-0.7757 1.2408-1.0488 1.9258-0.10938 0.27125-0.22711 0.545-0.34961 0.8125-0.24 0.53312-0.54774 1.0232-0.94336 1.4551-0.3425 0.3725-0.69016 0.73804-1.0352 1.1074-0.0319 0.0356-0.0919 0.0571-0.0645 0.13086 0.72062 0.10937 1.4376 0.0751 2.1445-0.12305 0.59937-0.1675 1.1458-0.43828 1.5977-0.8789 0.0169-0.0169 0.036-0.0351 0.0566-0.0488 0.145-0.10438 0.31507-0.0233 0.33007 0.15234 0.005 0.075-0.00086 0.15164-0.006 0.22852-0.0294 0.65937 0.028 1.3093 0.19921 1.9512 0.15813 0.58562 0.40094 1.1441 0.67969 1.6816 0.48688 0.93437 0.98547 1.8603 1.4805 2.7891 0.0112 0.0187 0.0303 0.0331 0.0547 0.0606 0.0325-0.0513 0.0596-0.0904 0.084-0.13477 0.1875-0.3675 0.3743-0.73476 0.56055-1.1035 0.37375-0.73438 0.7557-1.4666 1.0801-2.2266 0.10937-0.25438 0.21797-0.51305 0.29297-0.7793 0.215-0.76313 0.35789-1.5406 0.32226-2.3418-0.002-0.0425-0.003-0.0837 0.002-0.125 0.009-0.0925 0.0577-0.1582 0.14454-0.18945 0.0787-0.0288 0.15085-0.004 0.20898 0.0527 0.0325 0.0288 0.0591 0.062 0.0859 0.0957 0.19812 0.2425 0.44648 0.43125 0.72461 0.57812 0.28687 0.14813 0.58664 0.25149 0.90039 0.31836 0.64062 0.13813 1.2849 0.14899 1.9355 0.0996 0.0138 0 0.0252-0.0125 0.0527-0.0312-0.0206-0.0238-0.0399-0.0516-0.0606-0.0703-0.32437-0.27313-0.5925-0.59735-0.82812-0.94922h0.002c-0.43375-0.64188-0.81086-1.3186-1.0996-2.043-0.13812-0.35-0.27125-0.70547-0.40625-1.0586-0.18062-0.475-0.41023-0.92274-0.70898-1.334-0.14313-0.19812-0.28414-0.39922-0.41602-0.60547-0.16562-0.25437-0.32781-0.51039-0.47656-0.77539-0.1725-0.3075-0.31852-0.6325-0.38477-0.98437-0.07-0.37-0.1325-0.74477-0.1875-1.1191-0.0669-0.47438-0.0929-0.95555-0.10351-1.4356-0.006-0.21687-0.0367-0.43055-0.0742-0.6543z" transform="matrix(.8 0 0 -.8 510.86 462.01)" fill="#521e78"/></g></g></svg>
